<?xml version="1.0" encoding="UTF-8"?>
<svg id="Layer_1" data-name="Layer 1" xmlns="http://www.w3.org/2000/svg" viewBox="0 0 137.62 335.39">
  <defs>
    <style>
      .cls-1 {
        fill: #b6bee1;
        stroke: #2d2d72;
        stroke-miterlimit: 10;
      }
    </style>
  </defs>
  <path class="cls-1" d="M119.73,172.61c0,26.88-21.79,48.67-48.67,48.67s-48.67-21.79-48.67-48.67,21.79-48.67,48.67-48.67,48.67,21.79,48.67,48.67Zm-47.54,47.71c-31.64,0-57.29,25.65-57.29,57.29s25.65,57.29,57.29,57.29,57.29-25.65,57.29-57.29-25.65-57.29-57.29-57.29Zm-2.53-171.74c-20.63,0-37.35,16.72-37.35,37.35s16.72,37.35,37.35,37.35,37.35-16.72,37.35-37.35-16.72-37.35-37.35-37.35Zm-.85-2.05C31.08,46.53,.5,49.31,.5,52.74s30.58,6.21,68.31,6.21,68.31-2.78,68.31-6.21-30.58-6.21-68.31-6.21ZM96.21,.5H40.68V50.18h55.52V.5ZM55.56,72.92c-4.44,0-8.05,3.22-8.05,7.2s3.6,7.2,8.05,7.2,8.05-3.22,8.05-7.2-3.6-7.2-8.05-7.2Zm27.95-.85c-4.44,0-8.05,3.22-8.05,7.2s3.6,7.2,8.05,7.2,8.05-3.22,8.05-7.2-3.6-7.2-8.05-7.2Z"/>
</svg>